<svg xmlns="http://www.w3.org/2000/svg" xmlns:xlink="http://www.w3.org/1999/xlink" width="500" zoomAndPan="magnify" viewBox="0 0 375 374.999991" height="500" preserveAspectRatio="xMidYMid meet" version="1.0"><rect x="-37.5" width="450" fill="#ffffff" y="-37.499999" height="449.999989" fill-opacity="1"/><rect x="-37.5" width="450" fill="#ffffff" y="-37.499999" height="449.999989" fill-opacity="1"/><path fill="#004aad" d="M 225.015625 211.71875 C 225.144531 222.992188 218.09375 234.175781 206.617188 242.125 C 201.984375 245.332031 196.632812 248.015625 190.742188 249.964844 C 188.675781 250.652344 186.542969 251.246094 184.351562 251.738281 C 169.140625 255.175781 154.425781 253.089844 143.847656 247.046875 C 136.046875 242.59375 130.5 235.988281 128.664062 227.859375 C 126.109375 216.550781 131.300781 204.824219 141.421875 195.882812 C 144.785156 192.910156 148.699219 190.242188 153.054688 188 C 152.972656 188.105469 152.894531 188.207031 152.816406 188.3125 C 153.121094 188.09375 153.425781 187.871094 153.738281 187.65625 C 157.039062 186.007812 160.585938 184.601562 164.339844 183.492188 L 173.460938 146.480469 L 190.03125 146.480469 L 175.039062 181.234375 C 178.503906 180.792969 181.910156 180.632812 185.21875 180.734375 C 188.097656 180.824219 190.898438 181.113281 193.597656 181.585938 C 195.417969 181.90625 197.1875 182.3125 198.90625 182.796875 C 202.808594 184.5625 205.742188 188.101562 206.683594 192.386719 C 206.894531 193.339844 207 194.328125 207 195.34375 C 207 202.945312 200.839844 209.105469 193.242188 209.105469 C 185.640625 209.105469 179.476562 202.945312 179.476562 195.34375 C 179.476562 194.257812 179.601562 193.203125 179.839844 192.1875 C 179.445312 192.269531 179.050781 192.351562 178.65625 192.441406 C 174.984375 193.273438 171.488281 194.367188 168.226562 195.679688 L 157.847656 217.679688 L 153.292969 227.328125 L 156.152344 215.984375 L 160.292969 199.546875 C 155.9375 202.09375 152.25 205.046875 149.429688 208.226562 C 147.339844 210.578125 145.722656 213.046875 144.664062 215.566406 C 143.234375 218.949219 142.804688 222.414062 143.566406 225.78125 C 145.070312 232.441406 150.949219 237.453125 159.242188 240.175781 C 167.578125 242.910156 178.355469 243.339844 189.578125 240.804688 C 191.339844 240.40625 193.058594 239.945312 194.734375 239.429688 C 212.089844 234.09375 224.367188 222.785156 225.015625 211.71875 Z M 245.394531 192.84375 C 242.050781 178.058594 229.28125 167.347656 212.976562 163.621094 C 220.546875 156.949219 224.425781 148.898438 222.710938 141.300781 C 219.492188 127.050781 197.78125 119.808594 174.21875 125.132812 C 157.257812 128.960938 143.960938 138.257812 139.046875 148.480469 C 137.132812 152.460938 136.484375 156.578125 137.386719 160.574219 C 137.453125 160.871094 137.53125 161.167969 137.617188 161.464844 C 139.65625 166.503906 144.601562 170.058594 150.375 170.058594 C 151.472656 170.058594 152.539062 169.929688 153.5625 169.6875 C 159.628906 168.25 164.136719 162.800781 164.136719 156.296875 C 164.136719 151.167969 161.332031 146.691406 157.167969 144.328125 C 161.660156 141 167.515625 138.308594 174.164062 136.808594 C 190.847656 133.042969 206.21875 138.167969 208.5 148.257812 C 209.5625 152.976562 207.582031 157.941406 203.460938 162.28125 C 198.9375 167.042969 191.828125 171.054688 183.351562 173.132812 C 187.929688 172.714844 192.425781 172.8125 196.730469 173.378906 C 215.496094 175.832031 230.71875 187.199219 234.410156 203.542969 C 236.847656 214.34375 233.808594 225.339844 226.875 234.53125 C 241.15625 224.152344 248.882812 208.296875 245.394531 192.84375 Z M 245.394531 192.84375 " fill-opacity="1" fill-rule="nonzero"/><path fill="#004aad" d="M 225.015625 211.71875 C 225.144531 222.992188 218.09375 234.175781 206.617188 242.125 C 201.984375 245.332031 196.632812 248.015625 190.742188 249.964844 C 188.675781 250.652344 186.542969 251.246094 184.351562 251.738281 C 169.140625 255.175781 154.425781 253.089844 143.847656 247.046875 C 136.046875 242.59375 130.5 235.988281 128.664062 227.859375 C 126.109375 216.550781 131.300781 204.824219 141.421875 195.882812 C 144.785156 192.910156 148.699219 190.242188 153.054688 188 C 152.972656 188.105469 152.894531 188.207031 152.816406 188.3125 C 153.121094 188.09375 153.425781 187.871094 153.738281 187.65625 C 157.039062 186.007812 160.585938 184.601562 164.339844 183.492188 L 173.460938 146.480469 L 190.03125 146.480469 L 175.039062 181.234375 C 178.503906 180.792969 181.910156 180.632812 185.21875 180.734375 C 188.097656 180.824219 190.898438 181.113281 193.597656 181.585938 C 195.417969 181.90625 197.1875 182.3125 198.90625 182.796875 C 202.808594 184.5625 205.742188 188.101562 206.683594 192.386719 C 206.894531 193.339844 207 194.328125 207 195.34375 C 207 202.945312 200.839844 209.105469 193.242188 209.105469 C 185.640625 209.105469 179.476562 202.945312 179.476562 195.34375 C 179.476562 194.257812 179.601562 193.203125 179.839844 192.1875 C 179.445312 192.269531 179.050781 192.351562 178.65625 192.441406 C 174.984375 193.273438 171.488281 194.367188 168.226562 195.679688 L 157.847656 217.679688 L 153.292969 227.328125 L 156.152344 215.984375 L 160.292969 199.546875 C 155.9375 202.09375 152.25 205.046875 149.429688 208.226562 C 147.339844 210.578125 145.722656 213.046875 144.664062 215.566406 C 143.234375 218.949219 142.804688 222.414062 143.566406 225.78125 C 145.070312 232.441406 150.949219 237.453125 159.242188 240.175781 C 167.578125 242.910156 178.355469 243.339844 189.578125 240.804688 C 191.339844 240.40625 193.058594 239.945312 194.734375 239.429688 C 212.089844 234.09375 224.367188 222.785156 225.015625 211.71875 Z M 245.394531 192.84375 C 242.050781 178.058594 229.28125 167.347656 212.976562 163.621094 C 220.546875 156.949219 224.425781 148.898438 222.710938 141.300781 C 219.492188 127.050781 197.78125 119.808594 174.21875 125.132812 C 157.257812 128.960938 143.960938 138.257812 139.046875 148.480469 C 137.132812 152.460938 136.484375 156.578125 137.386719 160.574219 C 137.453125 160.871094 137.53125 161.167969 137.617188 161.464844 C 139.65625 166.503906 144.601562 170.058594 150.375 170.058594 C 151.472656 170.058594 152.539062 169.929688 153.5625 169.6875 C 159.628906 168.25 164.136719 162.800781 164.136719 156.296875 C 164.136719 151.167969 161.332031 146.691406 157.167969 144.328125 C 161.660156 141 167.515625 138.308594 174.164062 136.808594 C 190.847656 133.042969 206.21875 138.167969 208.5 148.257812 C 209.5625 152.976562 207.582031 157.941406 203.460938 162.28125 C 198.9375 167.042969 191.828125 171.054688 183.351562 173.132812 C 187.929688 172.714844 192.425781 172.8125 196.730469 173.378906 C 215.496094 175.832031 230.71875 187.199219 234.410156 203.542969 C 236.847656 214.34375 233.808594 225.339844 226.875 234.53125 C 241.15625 224.152344 248.882812 208.296875 245.394531 192.84375 Z M 245.394531 192.84375 " fill-opacity="1" fill-rule="nonzero"/></svg>